<?xml version="1.0" standalone="no"?>
<!DOCTYPE svg PUBLIC "-//W3C//DTD SVG 20010904//EN"
 "http://www.w3.org/TR/2001/REC-SVG-20010904/DTD/svg10.dtd">
<svg version="1.0" xmlns="http://www.w3.org/2000/svg"
 width="260.000000pt" height="257.000000pt" viewBox="0 0 260.000000 257.000000"
 preserveAspectRatio="xMidYMid meet">

<g transform="translate(0.000000,257.000000) scale(0.100000,-0.100000)"
fill="#000000" stroke="none">
<path d="M1170 2099 c-30 -5 -57 -13 -60 -18 -3 -5 -25 -17 -49 -27 -25 -10
-53 -25 -62 -33 -10 -9 -34 -29 -53 -45 -20 -16 -36 -34 -36 -40 0 -6 -9 -17
-20 -24 -11 -7 -20 -17 -20 -23 0 -6 -6 -16 -13 -23 -7 -8 -19 -33 -27 -57 -8
-24 -19 -47 -25 -51 -13 -9 -14 -256 0 -266 6 -4 18 -31 29 -61 10 -30 23 -60
30 -66 6 -7 22 -27 36 -45 30 -40 61 -70 71 -70 5 0 16 -8 26 -19 10 -10 35
-24 56 -32 20 -7 37 -16 37 -21 0 -17 93 -32 205 -32 113 0 205 15 205 33 0 4
17 13 38 19 41 12 71 34 127 92 58 59 65 69 82 113 9 23 20 44 24 47 11 7 29
117 29 174 0 61 -19 176 -30 176 -4 0 -15 21 -25 48 -10 26 -27 53 -37 60 -10
7 -18 17 -18 22 0 13 -44 56 -80 76 -16 10 -30 21 -30 25 0 4 -22 15 -49 24
-28 9 -51 20 -53 25 -9 24 -202 36 -308 19z"/>
<path d="M570 725 l0 -105 750 0 750 0 0 105 0 105 -750 0 -750 0 0 -105z"/>
</g>
</svg>
